<svg version="1" xmlns="http://www.w3.org/2000/svg" width="693.333" height="693.333" viewBox="0 0 520.000000 520.000000"><path d="M228.7 1.5C143.6 11.8 68.3 64.2 29 140.4 9.2 178.7 0 216.7 0 260s9.2 81.3 29 119.6c28.7 55.8 77.1 99.5 136 122.7 60 23.8 130 23.8 190 0A261.51 261.51 0 0 0 502.3 355c23.8-60 23.8-130 0-190C467 75.4 385.5 12.6 290.2 1.5c-15.4-1.8-46.4-1.8-61.5 0zm3.8 51.1c30.3 3.2 59.5 28.9 68 59.9 2.5 9 3.1 29.3 1.1 38.4-7 33-31.7 57.7-64.7 64.7-9.1 2-29.4 1.4-38.4-1.1-26.5-7.3-49.6-29.8-57.4-56-14.8-49.6 19.1-101 70.2-106.5 7.1-.7 9.5-.7 21.2.6zm134.1 149.8c4.6 1.4 11.4 4.7 15.5 7.4 44.6 29.2 40.6 95.3-7.1 118.8-9.2 4.5-18.6 6.6-30 6.7-18.6 0-34.2-6.4-47.5-19.7-13.4-13.3-19.3-26.3-20.2-44.7-1.5-28.5 13.2-53.2 39-65.5 10.5-4.9 18.1-6.4 31.2-6 8.5.3 12.9.9 19.1 3zM236.3 307.5c18.2 4.7 31.9 18.5 36.7 37 1.5 5.8 1.2 17.2-.5 24-2.3 8.5-6.2 15.2-13.2 22.3-26.5 26.8-71.9 14.9-82.7-21.7-2.2-7.7-2.1-20.4.4-28.2 2.4-7.8 8.7-17.6 14.3-22.5 12.1-10.4 30.1-14.8 45-10.9z"/><path d="M206.1 82.5c-18.4 5.2-34.3 21.9-38.1 40.2-1.7 8-.8 22.5 1.8 29.6 5.4 15.1 17.9 27.5 32.7 32.8 7.5 2.6 21.1 3.6 28.8 1.9 19.6-4 36.2-20.2 41.3-40.3 2.1-8.1 1.4-21.9-1.5-30.2-5.3-14.8-17.7-27.2-32.8-32.7-7.6-2.8-24.3-3.5-32.2-1.3zM334.1 224.6c-23.8 6.4-37.7 30.2-31.6 53.9 3.2 12.4 12.3 23.1 24.5 28.9 6.1 2.9 7.2 3.1 18.1 3.1 11.3 0 11.7-.1 19-3.7 9.3-4.6 16.8-12.2 21.2-21.5 3-6.4 3.2-7.4 3.2-18.3 0-11.1-.1-11.8-3.4-18.5-9.5-19.4-30.7-29.4-51-23.9zM217.5 325.9c-8.5 2.2-16.8 9-20.7 17-3.3 6.5-3.2 19.7 0 25.8 3.5 6.7 7.8 11 14.4 14.3 16 8 35.5.2 41.8-16.7 5.4-14.4-1.2-30.8-15.2-37.9-5.3-2.7-15.1-3.9-20.3-2.5z"/></svg>